<?xml version="1.0" encoding="UTF-8"?>
<svg version="1.1" xmlns="http://www.w3.org/2000/svg" width="260" height="32">
<path d="M0 0 C9 0 9 0 11.3046875 1.828125 C11.82289062 2.62734375 12.34109375 3.4265625 12.875 4.25 C13.67550781 5.43335938 13.67550781 5.43335938 14.4921875 6.640625 C14.98976563 7.41921875 15.48734375 8.1978125 16 9 C16.99 10.32 17.98 11.64 19 13 C19.33 8.71 19.66 4.42 20 0 C22.97 0 25.94 0 29 0 C29 10.56 29 21.12 29 32 C20 32 20 32 16.93359375 29.15625 C16.07152109 27.95856127 15.23964474 26.73862479 14.4375 25.5 C14.00115234 24.87996094 13.56480469 24.25992187 13.11523438 23.62109375 C12.04991768 22.09921276 11.02109675 20.55189653 10 19 C9.67 23.29 9.34 27.58 9 32 C6.03 32 3.06 32 0 32 C0 21.44 0 10.88 0 0 Z " fill="#CF000E" transform="translate(65,0)"/>
<path d="M0 0 C9.24 0 18.48 0 28 0 C28 9.9 28 19.8 28 30 C18.76 30 9.52 30 0 30 C0 20.1 0 10.2 0 0 Z M5 5 C5 9.95 5 14.9 5 20 C8.465 19.505 8.465 19.505 12 19 C12 18.34 12 17.68 12 17 C10.35 17 8.7 17 7 17 C7 15.35 7 13.7 7 12 C8.65 12 10.3 12 12 12 C12 11.34 12 10.68 12 10 C10.02 10 8.04 10 6 10 C6 8.68 6 7.36 6 6 C11.28 6 16.56 6 22 6 C22 7.32 22 8.64 22 10 C20.02 10 18.04 10 16 10 C16 10.66 16 11.32 16 12 C17.98 12 19.96 12 22 12 C21.690625 13.175625 21.690625 13.175625 21.375 14.375 C21.25125 15.24125 21.1275 16.1075 21 17 C21.66 17.66 22.32 18.32 23 19 C23 14.38 23 9.76 23 5 C17.06 5 11.12 5 5 5 Z M16 17 C17 19 17 19 17 19 Z M5 23 C5 23.66 5 24.32 5 25 C10.94 25 16.88 25 23 25 C23 24.67 23 24.34 23 24 C17.06 23.67 11.12 23.34 5 23 Z " fill="#FFFFFF" transform="translate(199,2)"/>
<path d="M0 0 C4.7953125 -0.1546875 4.7953125 -0.1546875 9.6875 -0.3125 C11.18543091 -0.38078003 11.18543091 -0.38078003 12.71362305 -0.45043945 C17.31029555 -0.52222628 19.34060533 -0.51230536 23.08203125 2.39453125 C25.92662119 6.25877053 26.19140006 8.21499839 26 13 C25.66666667 14.33333333 25.33333333 15.66666667 25 17 C25.33 17.66 25.66 18.32 26 19 C26.59873168 24.26883876 25.25400021 26.8846468 22 31 C19.59940183 32.20029908 18.10639351 32.11459743 15.4296875 32.09765625 C14.62257324 32.09515869 13.81545898 32.09266113 12.98388672 32.09008789 C11.9579541 32.08098389 10.93202148 32.07187988 9.875 32.0625 C4.986875 32.0315625 4.986875 32.0315625 0 32 C0 21.44 0 10.88 0 0 Z M9 8 C9 9.32 9 10.64 9 12 C11.31 12 13.62 12 16 12 C16.33 11.01 16.66 10.02 17 9 C15.81575674 7.58422523 15.81575674 7.58422523 12.4375 7.9375 C10.7359375 7.9684375 10.7359375 7.9684375 9 8 Z M9 20 C9 21.32 9 22.64 9 24 C11.31 24 13.62 24 16 24 C16.33 23.34 16.66 22.68 17 22 C16.67 21.34 16.34 20.68 16 20 C13.69 20 11.38 20 9 20 Z " fill="#CF000E" transform="translate(0,0)"/>
<path d="M0 0 C1.010625 -0.00773438 2.02125 -0.01546875 3.0625 -0.0234375 C8.18217514 0.67098652 11.80968943 3.46913022 14.984375 7.5078125 C17.72413082 12.54474819 17.45164842 17.84441368 15.875 23.1875 C13.30045728 27.56422262 10.89812841 30.74229053 6 32.375 C0.38237749 32.94990289 -5.19699612 33.50061501 -10.0625 30.25 C-13.70903402 27.05705924 -15.62032925 23.91324826 -16.34765625 19.05078125 C-16.68335282 13.43001554 -15.66332972 9.75193631 -12.58203125 5.06640625 C-8.83743402 1.06292329 -5.40222223 -0.04134354 0 0 Z M-5.4375 11.5 C-7.25965961 14.28745748 -7.25965961 14.28745748 -6.9375 17.5 C-5.79675187 21.09706885 -5.79675187 21.09706885 -3 23.375 C-0.04253508 23.95845476 -0.04253508 23.95845476 3 23.375 C5.37312298 21.57912315 6.64611144 20.10636969 7.9375 17.4375 C8.02959505 14.39836335 6.75755857 12.78350619 5 10.375 C0.96343469 8.35671735 -2.04458258 8.542072 -5.4375 11.5 Z " fill="#CF000E" transform="translate(45,-0.375)"/>
<path d="M0 0 C2.475 0.99 2.475 0.99 5 2 C5 2.66 5 3.32 5 4 C8.96 4.33 12.92 4.66 17 5 C17 6.32 17 7.64 17 9 C11.72 9 6.44 9 1 9 C0.34 10.65 -0.32 12.3 -1 14 C-0.01 14 0.98 14 2 14 C2 12.68 2 11.36 2 10 C3.65 10 5.3 10 7 10 C7 11.32 7 12.64 7 14 C9.97 14 12.94 14 16 14 C16 15.65 16 17.3 16 19 C15.01 19.33 14.02 19.66 13 20 C13.825 20.928125 14.65 21.85625 15.5 22.8125 C18 25.625 18 25.625 18 29 C16.68 29.33 15.36 29.66 14 30 C13.0158875 28.73299277 12.03788503 27.4612381 11.0625 26.1875 C10.51722656 25.47980469 9.97195312 24.77210937 9.41015625 24.04296875 C8 22 8 22 7 19 C7.05220703 20.15628906 7.05220703 20.15628906 7.10546875 21.3359375 C7.13253906 22.33882812 7.15960938 23.34171875 7.1875 24.375 C7.23970703 25.87160156 7.23970703 25.87160156 7.29296875 27.3984375 C7.14794922 28.68621094 7.14794922 28.68621094 7 30 C3.77208445 32.1519437 2.71599191 32.20086443 -1 32 C-1 30.35 -1 28.7 -1 27 C-0.01 27 0.98 27 2 27 C2 24.36 2 21.72 2 19 C1.01 19.33 0.02 19.66 -1 20 C-1.70626239 21.98636298 -2.36893571 23.98848259 -3 26 C-4.625 28.375 -4.625 28.375 -6 30 C-7.65 29.67 -9.3 29.34 -11 29 C-10.38545304 25.00544473 -8.29353263 22.25533664 -6 19 C-6.99 19 -7.98 19 -9 19 C-9.26218749 15.85375007 -9.24754367 14.38162983 -7.5 11.6875 C-7.005 11.130625 -6.51 10.57375 -6 10 C-7.65 9.67 -9.3 9.34 -11 9 C-11 7.68 -11 6.36 -11 5 C-8.03 5 -5.06 5 -2 5 C-1.34 3.35 -0.68 1.7 0 0 Z " fill="#FFFFFF" transform="translate(146,0)"/>
<path d="M0 0 C0.99 0.33 1.98 0.66 3 1 C3.33 2.32 3.66 3.64 4 5 C7.63 5 11.26 5 15 5 C15 6.32 15 7.64 15 9 C9.72 9 4.44 9 -1 9 C-1 10.32 -1 11.64 -1 13 C3.29 13 7.58 13 12 13 C12.30500582 25.50523865 12.30500582 25.50523865 10 30 C6.88910739 32.44427276 3.84135867 32.17460721 0 32 C0 30.35 0 28.7 0 27 C1.65 26.67 3.3 26.34 5 26 C5.66 23.36 6.32 20.72 7 18 C4.03 18 1.06 18 -2 18 C-2.1546875 19.0828125 -2.1546875 19.0828125 -2.3125 20.1875 C-3.54942205 25.24763566 -6.23812078 28.49756072 -10 32 C-11.32 31.34 -12.64 30.68 -14 30 C-13.5843344 27.1942572 -13.0403288 26.04293066 -11.0625 23.9375 C-8.04999912 19.64696844 -7.68178228 15.12233792 -7 10 C-9.31 9.67 -11.62 9.34 -14 9 C-14 7.68 -14 6.36 -14 5 C-10.04 5 -6.08 5 -2 5 C-2 3.68 -2 2.36 -2 1 C-1.34 0.67 -0.68 0.34 0 0 Z " fill="#FFFFFF" transform="translate(181,0)"/>
<path d="M0 0 C1.65 0.33 3.3 0.66 5 1 C4.67 2.32 4.34 3.64 4 5 C6.31 5 8.62 5 11 5 C10.67 3.68 10.34 2.36 10 1 C11.65 0.67 13.3 0.34 15 0 C15.185625 0.639375 15.37125 1.27875 15.5625 1.9375 C16.94246056 4.42126213 16.94246056 4.42126213 20.625 4.75 C21.73875 4.8325 22.8525 4.915 24 5 C24 6.32 24 7.64 24 9 C17.07 9 10.14 9 3 9 C2.67 16.59 2.34 24.18 2 32 C0.68 32 -0.64 32 -2 32 C-2.33 27.05 -2.66 22.1 -3 17 C-3.99 16.67 -4.98 16.34 -6 16 C-7 13 -7 13 -5.8203125 10.625 C-5.26085937 9.75875 -4.70140625 8.8925 -4.125 8 C-2.38155573 5.27536152 -1.02602198 3.07806593 0 0 Z " fill="#FFFFFF" transform="translate(236,0)"/>
<path d="M0 0 C2.86207152 1.28299758 5.0245088 2.530636 7 5 C7 5.99 7 6.98 7 8 C6.01 8 5.02 8 4 8 C4 8.66 4 9.32 4 10 C-0.2068433 12.10342165 -5.43229739 11.53532311 -10 11 C-13.00654574 9.65931072 -14.57408742 8.31564382 -17 6 C-17 5.34 -17 4.68 -17 4 C-17.66 4 -18.32 4 -19 4 C-19 3.01 -19 2.02 -19 1 C-17.71222656 1.01160156 -16.42445312 1.02320312 -15.09765625 1.03515625 C-13.41927228 1.0445327 -11.74088674 1.05363305 -10.0625 1.0625 C-9.21236328 1.07087891 -8.36222656 1.07925781 -7.48632812 1.08789062 C-6.67744141 1.09111328 -5.86855469 1.09433594 -5.03515625 1.09765625 C-4.2862915 1.10289307 -3.53742676 1.10812988 -2.76586914 1.11352539 C-0.97332261 1.19341752 -0.97332261 1.19341752 0 0 Z " fill="#CF000E" transform="translate(118,21)"/>
<path d="M0 0 C1.56814453 0.02320312 1.56814453 0.02320312 3.16796875 0.046875 C5.8125 0.25 5.8125 0.25 7.8125 1.25 C7.8125 1.91 7.8125 2.57 7.8125 3.25 C8.8025 3.25 9.7925 3.25 10.8125 3.25 C10.44636699 5.81293104 9.73093422 7.37574725 8.3125 9.5625 C5.00078227 11.79790947 3.29476792 11.24498251 -0.52734375 10.61328125 C-5.38749321 9.9495604 -10.29170357 10.17544472 -15.1875 10.25 C-15.1875 9.26 -15.1875 8.27 -15.1875 7.25 C-14.5275 7.25 -13.8675 7.25 -13.1875 7.25 C-12.960625 6.651875 -12.73375 6.05375 -12.5 5.4375 C-9.57050573 0.55500955 -5.37112588 -0.13344412 0 0 Z " fill="#CF000E" transform="translate(114.1875,-0.25)"/>
<path d="M0 0 C5.94 0 11.88 0 18 0 C18.09765625 8.49609375 18.09765625 8.49609375 18 11 C17 12 17 12 13.18359375 12.09765625 C11.60153318 12.09098089 10.01948841 12.07901875 8.4375 12.0625 C7.63119141 12.05798828 6.82488281 12.05347656 5.99414062 12.04882812 C3.99606244 12.03700518 1.99802217 12.01906914 0 12 C0 8.04 0 4.08 0 0 Z M4 4 C4 4.99 4 5.98 4 7 C6.97 7 9.94 7 13 7 C13 6.01 13 5.02 13 4 C10.03 4 7.06 4 4 4 Z " fill="#FFFFFF" transform="translate(241,20)"/>
<path d="M0 0 C3.3 0 6.6 0 10 0 C9.814375 1.093125 9.62875 2.18625 9.4375 3.3125 C8.7421932 6.93624133 8.7421932 6.93624133 10 10 C6.7 10 3.4 10 0 10 C-1.36952673 7.26094655 -1.12621361 5.02912668 -1 2 C-0.67 1.34 -0.34 0.68 0 0 Z " fill="#CF000E" transform="translate(98,11)"/>
<path d="M0 0 C5.61 0 11.22 0 17 0 C17 1.32 17 2.64 17 4 C11.39 4 5.78 4 0 4 C0 2.68 0 1.36 0 0 Z " fill="#FFFFFF" transform="translate(241,15)"/>
<path d="M0 0 C5.61 0 11.22 0 17 0 C17 1.32 17 2.64 17 4 C11.39 4 5.78 4 0 4 C0 2.68 0 1.36 0 0 Z " fill="#FFFFFF" transform="translate(241,10)"/>
</svg>
